<?xml version="1.0" encoding="utf-8"?>
<!-- Generator: Adobe Illustrator 16.0.0, SVG Export Plug-In . SVG Version: 6.00 Build 0)  -->
<!DOCTYPE svg PUBLIC "-//W3C//DTD SVG 1.1//EN" "http://www.w3.org/Graphics/SVG/1.1/DTD/svg11.dtd">
<svg version="1.1" id="Layer_1" xmlns="http://www.w3.org/2000/svg" xmlns:xlink="http://www.w3.org/1999/xlink" x="0px" y="0px"
	 width="175.202px" height="44.21px" viewBox="0 0 175.202 44.21" enable-background="new 0 0 175.202 44.21" xml:space="preserve">
<g>
	<path d="M29.823,19.268c0.196,0.029,0.29,0.146,0.275,0.351c-0.015,0.206-0.134,0.293-0.36,0.266
		c-0.649-0.06-1.354-0.112-2.114-0.155c-0.763-0.045-1.551-0.066-2.369-0.066c-0.508,0-1.03,0.007-1.566,0.021
		c-0.537,0.017-1.086,0.038-1.651,0.067c0,1.319,0.163,2.419,0.487,3.298c0.323,0.88,0.74,1.571,1.248,2.065
		c0.509,0.5,1.094,0.851,1.756,1.059c0.662,0.203,1.333,0.308,2.01,0.308c1.072,0,2.082-0.179,3.025-0.53
		c0.945-0.35,1.644-0.686,2.097-1.008c0.225-0.15,0.393-0.144,0.506,0.021c0.113,0.161,0.058,0.329-0.168,0.505
		c-0.479,0.354-1.221,0.712-2.224,1.077c-1,0.366-2.078,0.551-3.236,0.551c-0.76,0-1.501-0.111-2.221-0.329
		c-0.719-0.223-1.369-0.609-1.947-1.167c-0.578-0.559-1.043-1.304-1.396-2.245c-0.352-0.938-0.528-2.124-0.528-3.562
		c-2.2,0.116-4.499,0.308-6.897,0.571c-2.398,0.265-4.781,0.601-7.15,1.012c-0.847,1.408-1.517,2.749-2.011,4.022
		c-0.495,1.278-0.739,2.456-0.739,3.544c-0.029,0.175-0.134,0.258-0.319,0.243c-0.183-0.018-0.273-0.101-0.273-0.243
		c0-1.088,0.233-2.259,0.698-3.522c0.466-1.259,1.105-2.576,1.925-3.954c-1.1,0.204-2.179,0.424-3.237,0.659
		c-1.058,0.233-2.081,0.468-3.069,0.703c-0.196,0.03-0.316-0.05-0.359-0.241c-0.041-0.19,0.021-0.315,0.192-0.374
		c1.072-0.264,2.193-0.519,3.364-0.771c1.17-0.248,2.362-0.476,3.575-0.682c1.015-1.611,2.186-3.238,3.512-4.88
		c1.326-1.642,2.715-3.233,4.169-4.771c1.451-1.54,2.897-2.976,4.336-4.312c1.439-1.333,2.756-2.505,3.957-3.518
		c1.198-1.012,2.237-1.802,3.11-2.375c0.876-0.57,1.468-0.856,1.778-0.856c0.422,0,0.685,0.108,0.782,0.329
		c0.099,0.22,0.084,0.544-0.043,0.968c-0.127,0.426-0.346,0.931-0.655,1.518c-0.312,0.587-0.664,1.246-1.057,1.98
		c-0.481,0.877-1.003,1.868-1.565,2.968c-0.566,1.099-1.095,2.263-1.588,3.495c-0.494,1.233-0.916,2.507-1.27,3.827
		c-0.354,1.319-0.543,2.654-0.572,4.002c0.565-0.029,1.114-0.051,1.651-0.066c0.536-0.014,1.059-0.022,1.566-0.022
		c0.873,0,1.691,0.022,2.454,0.066C28.471,19.157,29.176,19.208,29.823,19.268z M28.005,0.664c-0.311,0-0.883,0.279-1.714,0.835
		c-0.833,0.557-1.835,1.312-3.006,2.266c-1.169,0.952-2.447,2.074-3.829,3.364c-1.383,1.291-2.771,2.675-4.167,4.155
		c-1.397,1.482-2.745,3.021-4.04,4.62C9.95,17.5,8.807,19.076,7.82,20.631c2.284-0.381,4.591-0.696,6.917-0.947
		c2.329-0.249,4.564-0.417,6.708-0.504c0.028-1.349,0.218-2.706,0.572-4.069c0.351-1.363,0.782-2.675,1.29-3.935
		c0.509-1.262,1.051-2.448,1.628-3.563c0.578-1.113,1.108-2.125,1.587-3.035c0.648-1.201,1.143-2.155,1.482-2.858
		C28.344,1.017,28.344,0.664,28.005,0.664z"/>
	<path d="M32.617,25.161c0.055-0.205,0.175-0.279,0.359-0.218c0.183,0.057,0.258,0.157,0.232,0.308l-0.211,1.051
		c0.563-0.407,1.105-0.773,1.629-1.098c0.521-0.322,0.951-0.483,1.288-0.483c0.368,0,0.615,0.11,0.742,0.33
		c0.127,0.222,0.232,0.433,0.316,0.637c0.113,0.264,0.284,0.53,0.509,0.794s0.635,0.394,1.227,0.394
		c0.564,0,1.334-0.136,2.308-0.416c0.973-0.279,2.249-0.788,3.83-1.517c0.168-0.061,0.286-0.008,0.358,0.149
		c0.07,0.165,0.034,0.287-0.105,0.376c-1.665,0.763-2.999,1.292-3.999,1.585c-1.002,0.294-1.799,0.438-2.392,0.438
		c-0.396,0-0.72-0.044-0.973-0.129c-0.254-0.089-0.467-0.215-0.635-0.376c-0.168-0.16-0.296-0.333-0.38-0.504
		c-0.087-0.179-0.17-0.351-0.255-0.53c-0.141-0.407-0.325-0.616-0.552-0.616c-0.308,0-0.689,0.154-1.141,0.462
		c-0.453,0.308-1.128,0.812-2.031,1.518c-0.058,0.061-0.155,0.096-0.297,0.111c-0.142,0.014-0.197-0.05-0.168-0.201L32.617,25.161z"
		/>
	<path d="M44.804,25.161c0.055-0.205,0.174-0.279,0.358-0.218c0.184,0.057,0.259,0.157,0.233,0.308l-0.212,1.051
		c0.564-0.407,1.106-0.773,1.629-1.098c0.522-0.322,0.951-0.483,1.29-0.483c0.366,0,0.614,0.11,0.741,0.33
		c0.127,0.222,0.231,0.433,0.316,0.637c0.112,0.264,0.282,0.53,0.508,0.794s0.636,0.394,1.229,0.394
		c0.563,0,1.333-0.136,2.307-0.416s2.249-0.788,3.83-1.517c0.168-0.061,0.286-0.008,0.357,0.149
		c0.071,0.165,0.035,0.287-0.104,0.376c-1.668,0.763-2.999,1.292-4,1.585c-1.002,0.294-1.8,0.438-2.391,0.438
		c-0.396,0-0.72-0.044-0.974-0.129c-0.255-0.089-0.466-0.215-0.636-0.376c-0.167-0.16-0.295-0.333-0.38-0.504
		c-0.085-0.179-0.169-0.351-0.253-0.53c-0.142-0.407-0.326-0.616-0.552-0.616c-0.309,0-0.69,0.154-1.142,0.462
		c-0.453,0.308-1.129,0.812-2.031,1.518c-0.058,0.061-0.155,0.096-0.297,0.111c-0.142,0.014-0.196-0.05-0.168-0.201L44.804,25.161z"
		/>
	<path d="M60.162,25.161c-0.056,0.146-0.169,0.211-0.339,0.197c-0.168-0.015-0.255-0.107-0.255-0.287
		c0.029-0.115,0.017-0.247-0.039-0.394c-0.058-0.146-0.187-0.222-0.381-0.222c-0.229,0-0.468,0.067-0.72,0.2
		c-0.254,0.129-0.496,0.3-0.72,0.505c-0.228,0.203-0.418,0.418-0.57,0.637c-0.157,0.219-0.232,0.434-0.232,0.64
		c0,0.115,0.056,0.165,0.168,0.151c0.111-0.015,0.262-0.072,0.443-0.175c0.183-0.104,0.388-0.233,0.612-0.397
		c0.226-0.159,0.451-0.344,0.68-0.548c0.168-0.147,0.31-0.204,0.423-0.176c0.11,0.029,0.224,0.101,0.336,0.223
		c0.396,0.409,0.833,0.688,1.313,0.831c0.479,0.15,0.916,0.222,1.31,0.222c0.706,0,1.477-0.162,2.31-0.483
		c0.832-0.322,1.601-0.705,2.307-1.141c0.225-0.089,0.374-0.051,0.441,0.107c0.071,0.164,0.036,0.3-0.106,0.418
		c-0.731,0.469-1.549,0.874-2.454,1.209c-0.9,0.336-1.733,0.505-2.497,0.505c-0.563,0-1.106-0.093-1.626-0.287
		c-0.523-0.189-1.01-0.49-1.461-0.902c-0.704,0.706-1.349,1.103-1.926,1.189c-0.579,0.09-0.868-0.157-0.868-0.745
		c0-0.264,0.091-0.551,0.277-0.858c0.183-0.308,0.415-0.587,0.696-0.838c0.284-0.25,0.594-0.462,0.933-0.636
		c0.339-0.176,0.648-0.265,0.932-0.265c0.449,0,0.739,0.164,0.867,0.485C60.141,24.648,60.191,24.928,60.162,25.161z"/>
	<path d="M103.493,13.77c-0.168,0.029-0.261-0.059-0.272-0.264c-0.016-0.204,0.047-0.322,0.186-0.351
		c0.593-0.119,1.16-0.339,1.695-0.661c0.534-0.322,0.997-0.696,1.375-1.121c0.381-0.425,0.685-0.893,0.909-1.407
		c0.227-0.513,0.337-1.035,0.337-1.562c0-0.586-0.186-1.144-0.568-1.669c-0.383-0.528-0.906-0.991-1.565-1.387
		c-0.665-0.396-1.432-0.705-2.308-0.925c-0.877-0.22-1.822-0.329-2.833-0.329c-2.06,0-4.042,0.248-5.947,0.749
		c-1.903,0.499-3.683,1.187-5.331,2.066c-1.652,0.879-3.146,1.899-4.485,3.057c-1.341,1.158-2.489,2.405-3.45,3.738
		c-0.958,1.335-1.699,2.704-2.22,4.112c-0.522,1.406-0.784,2.8-0.784,4.177c0,1.408,0.353,2.491,1.059,3.257
		c0.703,0.758,1.648,1.141,2.837,1.141c1.439,0,2.763-0.118,3.976-0.354c1.213-0.232,2.395-0.479,3.555-0.745
		c1.074-0.235,2.13-0.461,3.17-0.679c1.045-0.222,2.176-0.333,3.387-0.333c1.497,0,2.694,0.305,3.602,0.902
		c0.901,0.601,1.55,1.457,1.946,2.573c0.816-0.235,1.61-0.476,2.39-0.727c0.773-0.246,1.558-0.49,2.349-0.727
		c0.76-0.232,1.536-0.465,2.326-0.701c0.788-0.237,1.538-0.469,2.24-0.706c0.201,0,0.318,0.083,0.36,0.244
		c0.045,0.162-0.02,0.283-0.188,0.376c-0.735,0.232-1.483,0.465-2.245,0.702c-0.764,0.236-1.536,0.468-2.325,0.702
		c-0.791,0.235-1.573,0.471-2.349,0.705c-0.777,0.232-1.573,0.482-2.396,0.747c0.201,0.702,0.301,1.554,0.301,2.549
		c0,1.232-0.272,2.412-0.806,3.542c-0.535,1.129-1.248,2.185-2.136,3.165c-0.888,0.984-1.91,1.876-3.07,2.683
		c-1.153,0.811-2.369,1.496-3.637,2.07c-1.271,0.57-2.541,1.008-3.808,1.316c-1.27,0.309-2.455,0.465-3.556,0.465
		c-0.99,0-1.827-0.342-2.518-1.016c-0.691-0.674-1.033-1.492-1.033-2.463c0-1.348,0.56-2.62,1.688-3.822
		c1.131-1.204,2.612-2.335,4.444-3.387c1.833-1.06,3.916-2.041,6.242-2.949s4.701-1.761,7.129-2.547
		c-0.734-2.054-2.384-3.083-4.953-3.083c-1.124,0-2.205,0.112-3.236,0.333c-1.029,0.218-2.079,0.444-3.149,0.68
		c-1.16,0.265-2.351,0.515-3.579,0.744c-1.225,0.237-2.602,0.354-4.122,0.354c-1.356,0-2.44-0.439-3.26-1.32
		c-0.819-0.88-1.229-2.112-1.229-3.693c0-1.407,0.269-2.843,0.807-4.31c0.536-1.466,1.293-2.888,2.267-4.266
		c0.972-1.378,2.147-2.668,3.527-3.871c1.382-1.201,2.92-2.249,4.618-3.145c1.688-0.892,3.507-1.604,5.454-2.132
		c1.945-0.528,3.993-0.792,6.139-0.792c1.097,0,2.122,0.133,3.064,0.396c0.945,0.265,1.775,0.616,2.5,1.056
		c0.715,0.44,1.28,0.961,1.688,1.561c0.411,0.601,0.614,1.239,0.614,1.913c0,0.587-0.127,1.174-0.378,1.759
		c-0.259,0.587-0.603,1.121-1.038,1.607c-0.437,0.483-0.944,0.9-1.525,1.251C104.795,13.375,104.172,13.624,103.493,13.77z
		 M101.632,30.919c0-0.938-0.1-1.729-0.297-2.373c-2.428,0.763-4.781,1.578-7.069,2.441c-2.282,0.863-4.313,1.797-6.093,2.795
		c-1.774,0.994-3.204,2.065-4.293,3.208c-1.087,1.144-1.629,2.375-1.629,3.693c0,0.793,0.289,1.467,0.869,2.027
		c0.577,0.557,1.275,0.836,2.093,0.836c1.072,0,2.224-0.15,3.447-0.445c1.229-0.291,2.449-0.715,3.661-1.271
		c1.213-0.559,2.378-1.219,3.49-1.98c1.116-0.764,2.105-1.615,2.965-2.552c0.858-0.938,1.552-1.941,2.073-3.014
		C101.371,33.218,101.632,32.093,101.632,30.919z"/>
	<path d="M123.213,24.942c0.169-0.089,0.301-0.051,0.4,0.107c0.101,0.164,0.078,0.3-0.064,0.418
		c-0.596,0.412-1.288,0.792-2.094,1.141c-0.805,0.355-1.642,0.663-2.517,0.924c-0.876,0.265-1.753,0.473-2.627,0.615
		c-0.872,0.151-1.689,0.222-2.455,0.222c-0.478,0-0.895-0.146-1.244-0.439c-0.352-0.293-0.53-0.644-0.53-1.056
		c0-0.205,0.035-0.444,0.108-0.723c0.07-0.28,0.146-0.538,0.227-0.774c-0.619,0.09-1.121,0.014-1.521-0.218
		c-0.396-0.233-0.591-0.63-0.591-1.189c0-0.146,0.098-0.232,0.295-0.261c0.199-0.029,0.296,0.058,0.296,0.261
		c0,0.354,0.169,0.601,0.51,0.749c0.339,0.147,0.79,0.133,1.354-0.043c0.166-0.058,0.295-0.007,0.381,0.153
		c0.087,0.162,0.071,0.315-0.044,0.461c-0.143,0.205-0.246,0.463-0.316,0.771c-0.069,0.308-0.104,0.576-0.104,0.813
		c0,0.235,0.117,0.44,0.356,0.616c0.241,0.179,0.516,0.264,0.823,0.264c0.736,0,1.525-0.071,2.373-0.222
		c0.848-0.144,1.693-0.344,2.539-0.594c0.844-0.247,1.653-0.54,2.41-0.877C121.942,25.726,122.618,25.35,123.213,24.942z"/>
	<path d="M136.834,24.895c0.2-0.056,0.318,0.019,0.361,0.219c0.04,0.207-0.022,0.339-0.19,0.4c-1.353,0.322-2.709,0.68-4.063,1.074
		c-1.355,0.397-2.637,0.816-3.852,1.253v0.354c0,0.673-0.12,1.435-0.358,2.287c-0.239,0.852-0.609,1.64-1.098,2.377
		c-0.494,0.73-1.114,1.346-1.866,1.846c-0.743,0.494-1.639,0.744-2.684,0.744c-0.566,0-1.031-0.188-1.396-0.571
		c-0.371-0.381-0.552-0.834-0.552-1.361c0-0.616,0.181-1.202,0.552-1.76c0.364-0.559,0.88-1.084,1.542-1.583
		c0.662-0.5,1.438-0.966,2.329-1.41c0.887-0.436,1.854-0.862,2.899-1.273c-0.087-0.558-0.285-0.838-0.594-0.838
		c-0.48,0-0.944,0.101-1.396,0.287c-0.452,0.193-0.958,0.286-1.525,0.286c-0.65,0-1.15-0.165-1.503-0.504
		c-0.35-0.336-0.458-0.884-0.314-1.65c0.058-0.143,0.173-0.218,0.359-0.218c0.186,0,0.261,0.103,0.231,0.308
		c-0.081,0.497-0.006,0.862,0.233,1.099c0.239,0.235,0.573,0.35,0.993,0.35c0.51,0,0.99-0.093,1.439-0.286
		c0.451-0.186,0.944-0.287,1.482-0.287c0.536,0,0.901,0.415,1.098,1.235c1.243-0.44,2.523-0.859,3.853-1.256
		C134.143,25.622,135.479,25.25,136.834,24.895z M123.084,34.833c0.93,0,1.731-0.226,2.411-0.679
		c0.677-0.459,1.239-1.027,1.691-1.718c0.449-0.686,0.786-1.41,0.994-2.176c0.214-0.762,0.318-1.45,0.318-2.065v-0.133
		c-0.987,0.38-1.892,0.777-2.71,1.188c-0.817,0.408-1.527,0.841-2.133,1.296c-0.609,0.454-1.081,0.931-1.418,1.431
		c-0.342,0.498-0.508,1.009-0.508,1.539c0,0.352,0.126,0.66,0.38,0.925C122.365,34.705,122.69,34.833,123.084,34.833z"/>
	<path d="M143.141,18.607c0,0.468-0.131,1.011-0.38,1.626c-0.258,0.617-0.646,1.241-1.167,1.871
		c-0.522,0.629-1.167,1.245-1.945,1.847c-0.775,0.601-1.684,1.12-2.729,1.564c0.173,0.465,0.48,0.848,0.932,1.138
		c0.451,0.293,1.044,0.444,1.775,0.444c0.737,0,1.603-0.172,2.604-0.508c1.003-0.336,2.163-0.888,3.493-1.646
		c0.138-0.061,0.25-0.008,0.336,0.149c0.087,0.165,0.058,0.287-0.086,0.376c-1.352,0.819-2.559,1.398-3.614,1.735
		c-1.059,0.336-1.968,0.508-2.733,0.508c-1.239,0-2.134-0.329-2.686-0.99c-0.551-0.659-0.823-1.457-0.823-2.396
		c0-0.998,0.173-1.943,0.527-2.837c0.354-0.896,0.806-1.679,1.356-2.353c0.547-0.675,1.138-1.21,1.774-1.606
		c0.639-0.395,1.249-0.593,1.841-0.593c0.506,0,0.887,0.153,1.145,0.461C143.01,17.706,143.141,18.109,143.141,18.607z
		 M136.709,24.326c0,0.262,0.015,0.452,0.039,0.569c0.987-0.411,1.844-0.891,2.563-1.451c0.72-0.557,1.317-1.12,1.795-1.692
		c0.48-0.571,0.842-1.136,1.082-1.693c0.239-0.557,0.357-1.039,0.357-1.451c0-0.704-0.309-1.055-0.93-1.055
		c-0.51,0-1.054,0.183-1.63,0.548c-0.575,0.369-1.113,0.859-1.606,1.474c-0.494,0.617-0.895,1.334-1.207,2.155
		C136.863,22.551,136.709,23.416,136.709,24.326z"/>
	<path d="M152.025,18.607c0,0.468-0.129,1.011-0.383,1.626c-0.252,0.617-0.64,1.241-1.162,1.871
		c-0.522,0.629-1.171,1.245-1.948,1.847c-0.776,0.601-1.684,1.12-2.729,1.564c0.17,0.465,0.478,0.848,0.93,1.138
		c0.451,0.293,1.045,0.444,1.779,0.444c0.732,0,1.603-0.172,2.605-0.508c0.998-0.336,2.16-0.888,3.488-1.646
		c0.14-0.061,0.255-0.008,0.337,0.149c0.086,0.165,0.058,0.287-0.082,0.376c-1.357,0.819-2.563,1.398-3.62,1.735
		c-1.057,0.336-1.968,0.508-2.729,0.508c-1.242,0-2.138-0.329-2.688-0.99c-0.552-0.659-0.824-1.457-0.824-2.396
		c0-0.998,0.177-1.943,0.531-2.837c0.351-0.896,0.801-1.679,1.353-2.353c0.551-0.675,1.142-1.21,1.775-1.606
		c0.637-0.395,1.248-0.593,1.844-0.593c0.507,0,0.888,0.153,1.14,0.461C151.896,17.706,152.025,18.109,152.025,18.607z
		 M145.596,24.326c0,0.262,0.014,0.452,0.039,0.569c0.987-0.411,1.842-0.891,2.559-1.451c0.723-0.557,1.32-1.12,1.8-1.692
		c0.48-0.571,0.837-1.136,1.08-1.693c0.237-0.557,0.359-1.039,0.359-1.451c0-0.704-0.312-1.055-0.93-1.055
		c-0.51,0-1.054,0.183-1.629,0.548c-0.581,0.369-1.118,0.859-1.612,1.474c-0.493,0.617-0.894,1.334-1.202,2.155
		C145.746,22.551,145.596,23.416,145.596,24.326z"/>
	<path d="M154.732,24.326c0.087-0.15,0.204-0.178,0.361-0.089c0.154,0.089,0.203,0.204,0.146,0.351
		c-0.081,0.176-0.168,0.397-0.252,0.663c-0.085,0.264-0.147,0.519-0.19,0.766c-0.044,0.25-0.064,0.472-0.064,0.662
		c0,0.189,0.071,0.287,0.211,0.287c0.397,0,0.827-0.19,1.292-0.573c0.465-0.383,0.865-0.819,1.207-1.321
		c0.196-0.293,0.406-0.279,0.632,0.043c0.256,0.383,0.552,0.723,0.893,1.016c0.337,0.293,0.801,0.437,1.395,0.437
		c0.336,0,0.72-0.058,1.142-0.175c0.424-0.118,0.854-0.254,1.294-0.419c0.436-0.157,0.836-0.33,1.206-0.504
		c0.362-0.176,0.646-0.336,0.843-0.484c0.168-0.146,0.325-0.14,0.466,0.022c0.143,0.161,0.115,0.314-0.083,0.461
		c-0.229,0.175-0.535,0.369-0.935,0.569c-0.393,0.208-0.823,0.394-1.287,0.551c-0.466,0.165-0.938,0.301-1.417,0.418
		c-0.479,0.119-0.893,0.176-1.229,0.176c-0.621,0-1.154-0.154-1.606-0.461c-0.454-0.308-0.806-0.638-1.059-0.992
		c-0.283,0.386-0.69,0.787-1.228,1.21c-0.538,0.429-1.045,0.64-1.525,0.64c-0.337,0-0.554-0.125-0.655-0.376
		c-0.101-0.247-0.124-0.551-0.082-0.902c0.039-0.351,0.117-0.708,0.232-1.074C154.549,24.859,154.65,24.56,154.732,24.326z"/>
	<path d="M164.973,25.468c-0.115-0.061-0.134-0.176-0.064-0.354c0.07-0.172,0.175-0.232,0.318-0.172
		c0.479,0.232,1.001,0.593,1.563,1.074c0.565,0.486,1.016,0.99,1.356,1.517c0.9-0.494,1.926-0.959,3.068-1.381
		c1.14-0.426,2.206-0.832,3.193-1.21c0.197-0.061,0.323-0.008,0.381,0.149c0.058,0.165,0.013,0.287-0.127,0.376
		c-0.958,0.383-2.019,0.806-3.173,1.277c-1.156,0.466-2.173,0.906-3.047,1.317c0.082,0.237,0.127,0.455,0.127,0.658
		c0,0.501-0.169,0.931-0.51,1.3c-0.336,0.365-0.801,0.548-1.395,0.548c-0.226,0-0.422-0.086-0.595-0.265
		c-0.168-0.171-0.251-0.38-0.251-0.616c0-0.323,0.162-0.645,0.483-0.967c0.325-0.322,0.77-0.644,1.334-0.966
		c-0.281-0.439-0.684-0.873-1.206-1.295C165.908,26.034,165.422,25.701,164.973,25.468z M167.979,28.721
		c0-0.175-0.019-0.307-0.042-0.393c-0.481,0.264-0.857,0.504-1.125,0.722c-0.268,0.222-0.4,0.434-0.4,0.638
		c0,0.179,0.086,0.265,0.254,0.265c0.421,0,0.746-0.122,0.972-0.372C167.863,29.33,167.979,29.043,167.979,28.721z"/>
</g>
</svg>
